<svg xmlns="http://www.w3.org/2000/svg" width="512" height="512" viewBox="0 0 512 512">
  <defs>
    <linearGradient id="bg" x1="0" y1="0" x2="0" y2="1">
      <stop offset="0" stop-color="#241f1a"/>
      <stop offset="1" stop-color="#0e0c0a"/>
    </linearGradient>
  </defs>
  <rect width="512" height="512" rx="112" fill="url(#bg)"/>
  <circle cx="256" cy="150" r="78" fill="#ffb347" opacity="0.18"/>
  <g fill="#ffb347">
    <!-- Koerper -->
    <ellipse cx="256" cy="300" rx="30" ry="46"/>
    <!-- Ohren -->
    <path d="M236 250 l-12 -34 22 16 z"/>
    <path d="M276 250 l12 -34 -22 16 z"/>
    <!-- linker Fluegel -->
    <path d="M256 282
             C 210 250, 150 252, 96 296
             C 132 292, 150 300, 162 320
             C 130 318, 120 332, 116 352
             C 158 336, 196 332, 226 348
             C 240 330, 250 312, 256 300 Z"/>
    <!-- rechter Fluegel (gespiegelt) -->
    <path d="M256 282
             C 302 250, 362 252, 416 296
             C 380 292, 362 300, 350 320
             C 382 318, 392 332, 396 352
             C 354 336, 316 332, 286 348
             C 272 330, 262 312, 256 300 Z"/>
  </g>
</svg>
